<svg width="1512" height="866" viewBox="0 0 1512 866" fill="none" xmlns="http://www.w3.org/2000/svg">
<path d="M-0.507507 -2.30613H1511.49V780.716C1511.49 780.716 1475.64 763.717 1451.25 759.694C1365.5 745.551 1336.5 866.236 1249.85 863.49C1168.18 860.901 1144.27 762.784 1062.62 759.694C974.935 756.375 945.974 865.61 858.261 863.49C774.514 861.465 748.892 759.129 665.127 759.694C582.399 760.252 557.664 861.961 474.946 863.49C389.317 865.072 362.127 758.344 276.496 759.694C193.36 761.004 166.911 880.184 85.1331 863.49C48.6052 856.033 -0.507507 817.504 -0.507507 817.504V-2.30613Z" fill="#429FC1"/>
<path d="M1441.16 579.184C1437.45 563.762 1423.64 552.284 1407.14 552.284C1401.78 552.284 1396.72 553.518 1392.17 555.686C1392.25 554.564 1392.3 553.424 1392.3 552.284C1392.3 523.645 1369.18 500.409 1340.64 500.409C1315.77 500.409 1294.99 518.074 1290.09 541.591C1286.76 540.413 1283.2 539.759 1279.48 539.759C1261.77 539.759 1247.42 554.172 1247.42 571.95C1247.42 573.239 1247.51 574.511 1247.66 575.744C1242.8 573.333 1237.35 571.95 1231.58 571.95C1211.49 571.968 1195.18 588.344 1195.18 608.515C1195.18 628.685 1211.49 645.061 1231.58 645.061C1237.44 645.061 1242.97 643.64 1247.89 641.154C1256.34 655.081 1271.55 664.409 1288.99 664.409C1301.75 664.409 1313.33 659.38 1321.93 651.249C1329.28 656.838 1338.42 660.184 1348.37 660.184C1354.83 660.184 1360.95 658.745 1366.48 656.221C1371.99 658.726 1378.08 660.166 1384.5 660.184C1395.32 660.184 1405.2 656.277 1412.88 649.791C1420.02 656.24 1429.45 660.184 1439.8 660.184C1462.1 660.184 1480.18 642.033 1480.18 619.638C1480.18 597.242 1462.83 579.894 1441.16 579.165V579.184Z" fill="#FFFAF2"/>
<path d="M448.977 532.246C445.272 516.823 431.458 505.345 414.963 505.345C409.601 505.345 404.537 506.579 399.994 508.748C400.069 507.626 400.124 506.486 400.124 505.345C400.124 476.707 377.001 453.47 348.46 453.47C323.587 453.47 302.81 471.136 297.913 494.653C294.581 493.475 291.025 492.821 287.301 492.821C269.596 492.821 255.241 507.233 255.241 525.011C255.241 526.301 255.334 527.572 255.483 528.806C250.624 526.394 245.169 525.011 239.398 525.011C219.309 525.03 203 541.405 203 561.576C203 581.746 219.309 598.122 239.398 598.122C245.262 598.122 250.792 596.701 255.707 594.215C264.159 608.142 279.37 617.47 296.815 617.47C309.568 617.47 321.148 612.441 329.749 604.31C337.103 609.899 346.245 613.245 356.187 613.245C362.647 613.245 368.772 611.806 374.302 609.282C379.812 611.787 385.9 613.227 392.324 613.245C403.14 613.245 413.026 609.338 420.697 602.852C427.846 609.301 437.267 613.245 447.618 613.245C469.922 613.245 488 595.094 488 572.699C488 550.304 470.648 532.956 448.977 532.227V532.246Z" fill="#FFFAF2"/>
<path d="M182.5 292.088C182.5 274.712 170.184 260.22 153.803 256.823C148.749 243.02 135.525 233.155 119.958 233.155C114.687 233.155 109.687 234.319 105.176 236.349C100.162 217.282 82.793 203.209 62.117 203.209C40.2079 203.209 22.0115 219.028 18.3126 239.854C16.1719 239.461 13.9905 239.231 11.7413 239.231C-6.2518 239.231 -21.1287 252.412 -23.8385 269.624C-41.1813 272.222 -54.5 287.135 -54.5 305.187C-54.5 325.079 -38.3495 341.209 -18.4324 341.209C-9.2597 341.209 -0.913499 337.758 5.4546 332.129C11.8226 337.772 20.1688 341.209 29.3415 341.209C37.8503 341.209 45.655 338.245 51.819 333.32C57.984 338.245 65.788 341.209 74.297 341.209C82.806 341.209 90.908 338.151 97.114 333.076C103.333 338.164 111.273 341.209 119.93 341.209C131.163 341.209 141.189 336.08 147.801 328.042C167.068 327.298 182.473 311.52 182.473 292.101L182.5 292.088Z" fill="#FFFAF2"/>
<path d="M1371.51 348.153C1373.33 346.845 1374.38 345.376 1374.38 343.816C1374.38 339.641 1367.03 336.088 1356.7 334.695C1356.78 334.132 1356.83 333.561 1356.83 332.975C1356.83 326.389 1352.02 321.05 1346.1 321.05C1345.98 321.05 1345.87 321.065 1345.75 321.069C1343.56 315.935 1338.87 312.376 1333.42 312.376C1328.07 312.376 1323.46 315.8 1321.22 320.776C1319.84 320.258 1318.37 319.966 1316.84 319.966C1314.46 319.966 1312.23 320.644 1310.28 321.831C1305.31 316.013 1298.29 312.376 1290.51 312.376C1288.48 312.376 1286.5 312.641 1284.6 313.108C1280.99 303.42 1272.84 296.358 1263.09 295.203C1263.14 294.427 1263.19 293.652 1263.19 292.863C1263.19 275.462 1250.89 261.294 1235.43 260.423C1232.12 232.237 1210.45 210.468 1184.19 210.468C1155.64 210.468 1132.5 236.194 1132.5 267.927C1132.5 270.62 1132.68 273.265 1133 275.86C1131.88 275.65 1130.74 275.516 1129.57 275.516C1118.26 275.516 1109.09 285.709 1109.09 298.283C1109.09 303.466 1110.66 308.227 1113.29 312.053C1103.82 317.731 1097.38 328.852 1097.38 341.648C1097.38 341.67 1097.38 341.692 1097.38 341.714C1097.39 345.307 1100.15 348.152 1103.38 348.152L1371.51 348.153Z" fill="#FFFAF2"/>
<path d="M179.628 733.251C181.449 731.943 182.5 730.474 182.5 728.914C182.5 724.739 175.143 721.186 164.82 719.793C164.893 719.23 164.944 718.659 164.944 718.073C164.944 711.487 160.14 706.148 154.215 706.148C154.098 706.148 153.984 706.163 153.867 706.167C151.678 701.033 146.987 697.474 141.536 697.474C136.189 697.474 131.573 700.898 129.331 705.874C127.955 705.356 126.487 705.064 124.955 705.064C122.577 705.064 120.343 705.742 118.396 706.929C113.425 701.111 106.41 697.474 98.621 697.474C96.591 697.474 94.619 697.739 92.715 698.206C89.103 688.518 80.951 681.456 71.204 680.301C71.254 679.525 71.31 678.751 71.31 677.961C71.31 660.56 59.007 646.392 43.547 645.521C40.237 617.335 18.566 595.566 -7.6934 595.566C-36.243 595.566 -59.3874 621.292 -59.3874 653.025C-59.3874 655.718 -59.2076 658.363 -58.8849 660.958C-60.0019 660.748 -61.1421 660.614 -62.3132 660.614C-73.6251 660.614 -82.7958 670.807 -82.7958 683.381C-82.7958 688.564 -81.2201 693.325 -78.597 697.151C-88.0646 702.829 -94.5 713.95 -94.5 726.746C-94.5 726.768 -94.5 726.79 -94.5 726.812C-94.4936 730.405 -91.739 733.25 -88.5065 733.25L179.628 733.251Z" fill="#FFFAF2"/>
</svg>
