<svg width="26" height="24" viewBox="0 0 26 24" fill="none" xmlns="http://www.w3.org/2000/svg">
<g clip-path="url(#clip0_0_1)">
<rect width="1280" height="5216" transform="translate(-972 -4691)" fill="#FFFAF2"/>
<path fill-rule="evenodd" clip-rule="evenodd" d="M-941.91 190H-942V186V-261H278V186V190H277.91C275.819 236.192 237.708 273 191 273C144.292 273 106.181 236.192 104.09 190H103.909C101.807 236.192 63.4766 273 16.5 273C-30.4766 273 -68.8068 236.192 -70.9092 190H-71.0903C-73.1807 236.192 -111.292 273 -158 273C-204.708 273 -242.819 236.192 -244.91 190H-245.09C-247.181 236.192 -285.292 273 -332 273C-378.708 273 -416.819 236.192 -418.91 190H-419.09C-421.181 236.192 -459.292 273 -506 273C-552.708 273 -590.819 236.192 -592.91 190H-593.091C-595.193 236.192 -633.523 273 -680.5 273C-727.477 273 -765.807 236.192 -767.909 190H-768.09C-770.181 236.192 -808.292 273 -855 273C-901.708 273 -939.819 236.192 -941.91 190Z" fill="#429FC1"/>
<rect x="-246" y="-18" width="290" height="60" rx="30" fill="#FFFAF2"/>
<path d="M2 10.5C1.17157 10.5 0.5 11.1716 0.5 12C0.5 12.8284 1.17157 13.5 2 13.5V10.5ZM25.0607 13.0607C25.6464 12.4749 25.6464 11.5251 25.0607 10.9393L15.5147 1.3934C14.9289 0.807611 13.9792 0.807611 13.3934 1.3934C12.8076 1.97919 12.8076 2.92893 13.3934 3.51472L21.8787 12L13.3934 20.4853C12.8076 21.0711 12.8076 22.0208 13.3934 22.6066C13.9792 23.1924 14.9289 23.1924 15.5147 22.6066L25.0607 13.0607ZM2 13.5H24V10.5H2V13.5Z" fill="#429FC1"/>
</g>
<defs>
<clipPath id="clip0_0_1">
<rect width="1280" height="5216" fill="white" transform="translate(-972 -4691)"/>
</clipPath>
</defs>
</svg>
