<svg width="1512" height="1001" viewBox="0 0 1512 1001" fill="none" xmlns="http://www.w3.org/2000/svg">
<rect y="865.131" width="1512" height="135.388" fill="#FFFAF2"/>
<rect width="1512" height="379.087" fill="#82C363"/>
<path d="M0 155.696H1512V894.334C1512 894.334 1476.15 874.85 1451.76 870.239C1366.01 854.03 1337 992.352 1250.35 989.204C1168.69 986.238 1144.77 873.781 1063.12 870.239C975.443 866.435 946.481 991.635 858.769 989.204C775.022 986.884 749.399 869.592 665.634 870.239C582.906 870.879 558.171 987.453 475.453 989.204C389.824 991.018 362.635 868.693 277.003 870.239C193.867 871.741 167.419 1008.34 85.6406 989.204C49.1127 980.658 0 936.498 0 936.498V155.696Z" fill="#82C363"/>
<path fill-rule="evenodd" clip-rule="evenodd" d="M197.543 440.659C200.667 427.126 192.524 413.448 179.002 409.825C165.497 406.207 151.625 413.955 147.543 427.206C144.618 424.595 141.054 422.61 137.007 421.526C123.188 417.823 108.983 426.024 105.279 439.844C102.904 448.709 105.427 457.732 111.189 464.04C103.045 466.623 96.3484 473.175 93.9731 482.04C90.2701 495.86 98.4714 510.065 112.291 513.768C116.374 514.862 120.491 514.917 124.36 514.095C121.746 527.355 129.83 540.554 143.077 544.104C156.325 547.654 169.926 540.265 174.292 527.474C177.232 530.121 180.824 532.131 184.907 533.225C198.727 536.928 212.932 528.727 216.635 514.907C219.01 506.043 216.488 497.02 210.726 490.711C218.87 488.129 225.566 481.576 227.942 472.712C231.645 458.892 223.443 444.687 209.623 440.984C205.536 439.888 201.416 439.834 197.543 440.659ZM157.146 491.287C164.84 493.349 172.749 488.783 174.81 481.089C176.872 473.394 172.306 465.486 164.612 463.424C156.918 461.362 149.009 465.929 146.947 473.623C144.885 481.317 149.452 489.226 157.146 491.287Z" fill="#429FC1"/>
<path fill-rule="evenodd" clip-rule="evenodd" d="M706.948 708.243C703.885 699.18 694.164 694.108 684.928 696.875C675.703 699.638 670.374 709.197 672.774 718.441C670.115 717.968 667.308 718.094 664.544 718.922C655.104 721.75 649.743 731.695 652.571 741.135C654.385 747.19 659.127 751.567 664.786 753.181C660.946 757.64 659.391 763.903 661.205 769.958C664.033 779.399 673.978 784.759 683.418 781.931C686.207 781.096 688.64 779.639 690.611 777.758C693.874 786.476 703.387 791.289 712.436 788.579C721.485 785.868 726.785 776.618 724.718 767.541C727.399 768.029 730.232 767.908 733.021 767.073C742.461 764.245 747.821 754.3 744.994 744.86C743.18 738.804 738.438 734.428 732.779 732.814C736.618 728.355 738.174 722.092 736.36 716.036C733.532 706.596 723.587 701.236 714.147 704.064C711.355 704.9 708.92 706.359 706.948 708.243ZM701.58 752.53C706.836 750.956 709.82 745.419 708.246 740.163C706.671 734.907 701.134 731.923 695.879 733.497C690.623 735.072 687.638 740.608 689.213 745.864C690.787 751.12 696.324 754.105 701.58 752.53Z" fill="#DF5F79"/>
</svg>
