<svg width="1512" height="992" viewBox="0 0 1512 992" fill="none" xmlns="http://www.w3.org/2000/svg">
<rect width="1512" height="379.087" fill="#82C363"/>
<path d="M0 155.696H1512V894.334C1512 894.334 1476.15 874.85 1451.76 870.239C1366.01 854.03 1337 992.352 1250.35 989.204C1168.69 986.238 1144.77 873.781 1063.12 870.239C975.443 866.435 946.481 991.635 858.769 989.204C775.022 986.884 749.399 869.592 665.634 870.239C582.906 870.879 558.171 987.453 475.453 989.204C389.824 991.018 362.635 868.693 277.003 870.239C193.867 871.741 167.419 1008.34 85.6406 989.204C49.1127 980.658 0 936.498 0 936.498V155.696Z" fill="#82C363"/>
</svg>
