<svg width="1280" height="732" viewBox="0 0 1280 732" fill="none" xmlns="http://www.w3.org/2000/svg">
<rect width="1280" height="280" fill="#FFC700"/>
<rect y="452" width="1280" height="280" fill="#FFFAF2"/>
<path d="M0 115H1280V660.57C1280 660.57 1249.65 646.179 1229 642.773C1156.41 630.801 1131.85 732.968 1058.5 730.643C989.367 728.452 969.121 645.39 900 642.773C825.771 639.964 801.254 732.438 727 730.643C656.103 728.929 634.412 642.295 563.5 642.773C493.466 643.246 472.526 729.349 402.5 730.643C330.01 731.982 306.993 641.631 234.5 642.773C164.121 643.883 141.73 744.776 72.5 730.643C41.5769 724.33 0 691.714 0 691.714V115Z" fill="#FFC700"/>
<path d="M0 115H1280V660.57C1280 660.57 1249.65 646.179 1229 642.773C1156.41 630.801 1131.85 732.968 1058.5 730.643C989.367 728.452 969.121 645.39 900 642.773C825.771 639.964 801.254 732.438 727 730.643C656.103 728.929 634.412 642.295 563.5 642.773C493.466 643.246 472.526 729.349 402.5 730.643C330.01 731.982 306.993 641.631 234.5 642.773C164.121 643.883 141.73 744.776 72.5 730.643C41.5769 724.33 0 691.714 0 691.714V115Z" fill="#FFC700"/>
</svg>
