<svg width="148" height="558" viewBox="0 0 148 558" fill="none" xmlns="http://www.w3.org/2000/svg">
<path fill-rule="evenodd" clip-rule="evenodd" d="M91 223.806C91.2807 223.81 91.5618 223.812 91.8434 223.812C122.635 223.812 147.597 198.707 147.597 167.738C147.597 136.769 122.635 111.664 91.8434 111.664C91.5618 111.664 91.2807 111.666 91 111.671V111.658C91.2807 111.662 91.5618 111.664 91.8434 111.664C122.635 111.664 147.597 86.7025 147.597 55.9107C147.597 25.1189 122.635 0.157227 91.8434 0.157227C91.5618 0.157227 91.2807 0.159315 91 0.163477V0L-40 0V558H91V557.501C91.2807 557.505 91.5618 557.507 91.8434 557.507C122.635 557.507 147.597 532.545 147.597 501.753C147.597 472.767 125.476 448.947 97.1946 446.253C125.476 443.56 147.597 419.74 147.597 390.753C147.597 361.392 124.9 337.331 96.094 335.16C124.9 332.988 147.597 308.927 147.597 279.566C147.597 248.774 122.635 223.812 91.8434 223.812C91.5618 223.812 91.2807 223.814 91 223.819V223.806Z" fill="#FFC700"/>
</svg>
