<svg width="149" height="560" viewBox="0 0 149 560" fill="none" xmlns="http://www.w3.org/2000/svg">
<path fill-rule="evenodd" clip-rule="evenodd" d="M57 0.666931C56.7572 0.663818 56.5141 0.662231 56.2706 0.662231C25.4788 0.662231 0.51709 25.6239 0.51709 56.4157C0.51709 87.2075 25.4788 112.169 56.2706 112.169C56.5141 112.169 56.7572 112.168 57 112.165V112.174C56.7573 112.171 56.5141 112.169 56.2707 112.169C25.4789 112.169 0.517188 137.275 0.517188 168.243C0.517188 199.212 25.4789 224.317 56.2707 224.317C56.5141 224.317 56.7573 224.316 57 224.312V224.322C56.7573 224.319 56.5141 224.317 56.2707 224.317C25.4789 224.317 0.517191 249.279 0.517191 280.071C0.517191 310.863 25.4789 335.824 56.2707 335.824C56.5141 335.824 56.7573 335.823 57 335.82V336.005C56.7573 336.002 56.5142 336 56.2708 336C25.479 336 0.517334 360.962 0.517334 391.753C0.517334 422.545 25.479 447.507 56.2708 447.507C56.5142 447.507 56.7573 447.505 57 447.502V448.005C56.7573 448.002 56.5142 448 56.2708 448C25.479 448 0.517334 472.962 0.517334 503.753C0.517334 534.545 25.479 559.507 56.2708 559.507C56.5142 559.507 56.7573 559.505 57 559.502V560H188L188 0H57V0.666931Z" fill="#429FC1"/>
</svg>
