<svg width="147" height="336" viewBox="0 0 147 336" fill="none" xmlns="http://www.w3.org/2000/svg">
<path fill-rule="evenodd" clip-rule="evenodd" d="M89.7322 335.151C90.1017 335.158 90.4722 335.162 90.8434 335.162C121.635 335.162 146.597 310.2 146.597 279.409C146.597 248.617 121.635 223.655 90.8434 223.655C90.4722 223.655 90.1017 223.659 89.7322 223.666V223.644C90.1017 223.651 90.4721 223.655 90.8433 223.655C121.635 223.655 146.597 198.55 146.597 167.581C146.597 136.612 121.635 111.507 90.8433 111.507C90.4721 111.507 90.1017 111.511 89.7322 111.518V111.496C90.1017 111.503 90.4721 111.507 90.8433 111.507C121.635 111.507 146.597 86.5453 146.597 55.7535C146.597 24.9617 121.635 0 90.8433 0C90.3158 0 89.79 0.00732601 89.266 0.0218818L-41.0001 0.0218818V335.824H89.7322V335.151Z" fill="#FFC700"/>
</svg>
