<svg width="150" height="337" viewBox="0 0 150 337" fill="none" xmlns="http://www.w3.org/2000/svg">
<path fill-rule="evenodd" clip-rule="evenodd" d="M57.3823 1.51587C57.0128 1.50864 56.6423 1.505 56.2711 1.505C25.4793 1.505 0.517578 26.4667 0.517578 57.2585C0.517578 88.0503 25.4793 113.012 56.2711 113.012C56.6423 113.012 57.0128 113.008 57.3823 113.001V113.023C57.0128 113.016 56.6424 113.012 56.2712 113.012C25.4794 113.012 0.517676 138.117 0.517676 169.086C0.517676 200.055 25.4794 225.16 56.2712 225.16C56.6424 225.16 57.0128 225.156 57.3823 225.149V225.171C57.0128 225.164 56.6424 225.16 56.2712 225.16C25.4794 225.16 0.517679 250.122 0.517679 280.914C0.517679 311.705 25.4794 336.667 56.2712 336.667C56.7987 336.667 57.3245 336.66 57.8485 336.645H188.115L188.115 0.84256H57.3823V1.51587Z" fill="#FFC700"/>
</svg>
