<svg width="60" height="60" viewBox="0 0 60 60" fill="none" xmlns="http://www.w3.org/2000/svg">
<circle cx="30.4473" cy="29.9775" r="29.5" transform="rotate(-180 30.4473 29.9775)" fill="#FFC700"/>
<path d="M44.5775 30.6647C45.1633 30.0789 45.1633 29.1291 44.5775 28.5433L35.0316 18.9974C34.4458 18.4116 33.496 18.4116 32.9102 18.9974C32.3245 19.5832 32.3245 20.5329 32.9102 21.1187L41.3955 29.604L32.9102 38.0893C32.3245 38.6751 32.3245 39.6248 32.9102 40.2106C33.496 40.7964 34.4458 40.7964 35.0316 40.2106L44.5775 30.6647ZM17.3776 28.104L15.8776 28.104L15.8776 31.104L17.3776 31.104L17.3776 28.104ZM43.5168 28.104L17.3776 28.104L17.3776 31.104L43.5168 31.104L43.5168 28.104Z" fill="#FFFAF2"/>
</svg>
