<svg width="249" height="261" viewBox="0 0 249 261" fill="none" xmlns="http://www.w3.org/2000/svg">
<path fill-rule="evenodd" clip-rule="evenodd" d="M181.649 73.7941C186.542 52.6532 173.818 31.2889 152.681 25.6341C131.576 19.9883 109.893 32.0908 103.505 52.7817C98.9323 48.7006 93.3584 45.5998 87.0305 43.907C65.4301 38.1284 43.2232 50.9428 37.43 72.5286C33.7149 86.3713 37.6522 100.46 46.6516 110.31C33.9296 114.35 23.469 124.584 19.7549 138.423C13.9617 160.009 26.7761 182.192 48.3765 187.97C54.7647 189.679 61.2059 189.762 67.2599 188.473C63.1632 209.187 75.7962 229.804 96.5046 235.344C117.207 240.883 138.466 229.342 145.298 209.37C149.894 213.506 155.512 216.648 161.897 218.356C183.498 224.134 205.705 211.32 211.498 189.734C215.213 175.891 211.276 161.803 202.276 151.953C214.998 147.913 225.459 137.679 229.173 123.84C234.966 102.254 222.152 80.071 200.551 74.2924C194.157 72.5816 187.708 72.5005 181.649 73.7941ZM118.499 152.863C130.524 156.079 142.888 148.942 146.114 136.923C149.341 124.904 142.208 112.553 130.184 109.337C118.159 106.121 105.795 113.258 102.568 125.277C99.3419 137.296 106.474 149.646 118.499 152.863Z" fill="#FFC700"/>
</svg>
